<svg id="c" viewBox="0 0 100 100" xmlns="http://www.w3.org/2000/svg"><defs><path id="wordPath" fill="none" stroke="red" d="M 43 16 q 7 -1 14 0 m -13 6 q 6 -1 12 0 m -11 7 q 5 -1 10 0 m -9 5 q 4 -1 8 0"></path></defs><g class="slicesHere"><animateTransform class="ballAnim" attributeName="transform" attributeType="XML" type="rotate" values="0 50 50; 3600 50 50" dur="4000ms" begin="indefinite" repeatCount="1" fill="freeze" keyTimes="0;1" keySplines="0.25 0.1 0.25 1" calcMode="spline"></animateTransform><g transform="rotate(0 50 50)" class="slice" data-value="0"><path class="slicePath" d="M 37.499999999999986 28.34936490538904 A 25 25 0 0 1 62.499999999999986 28.349364905389024" stroke="rgb(208, 198, 110)" stroke-width="30" fill="none"></path><text x="50" y="23" font-size="20" text-anchor="middle" textLength="25" dominant-baseline="middle">😀</text></g><g transform="rotate(60 50 50)" class="slice" data-value="1"><path class="slicePath" d="M 37.499999999999986 28.34936490538904 A 25 25 0 0 1 62.499999999999986 28.349364905389024" stroke="rgb(161, 141, 220)" stroke-width="30" fill="none"></path><text x="50" y="23" font-size="20" text-anchor="middle" textLength="25" dominant-baseline="middle">😁</text></g><g transform="rotate(120 50 50)" class="slice" data-value="2"><path class="slicePath" d="M 37.499999999999986 28.34936490538904 A 25 25 0 0 1 62.499999999999986 28.349364905389024" stroke="rgb(114, 84, 75)" stroke-width="30" fill="none"></path><text x="50" y="23" font-size="20" text-anchor="middle" textLength="25" dominant-baseline="middle">😂</text></g><g transform="rotate(180 50 50)" class="slice" data-value="3"><path class="slicePath" d="M 37.499999999999986 28.34936490538904 A 25 25 0 0 1 62.499999999999986 28.349364905389024" stroke="rgb(67, 27, 185)" stroke-width="30" fill="none"></path><text x="50" y="23" font-size="20" text-anchor="middle" textLength="25" dominant-baseline="middle">😃</text></g><g transform="rotate(240 50 50)" class="slice" data-value="4"><path class="slicePath" d="M 37.499999999999986 28.34936490538904 A 25 25 0 0 1 62.499999999999986 28.349364905389024" stroke="rgb(20, 225, 40)" stroke-width="30" fill="none"></path><text x="50" y="23" font-size="20" text-anchor="middle" textLength="25" dominant-baseline="middle">😄</text></g><g transform="rotate(300 50 50)" class="slice" data-value="5"><path class="slicePath" d="M 37.499999999999986 28.34936490538904 A 25 25 0 0 1 62.499999999999986 28.349364905389024" stroke="rgb(228, 168, 150)" stroke-width="30" fill="none"></path><text x="50" y="23" font-size="20" text-anchor="middle" textLength="25" dominant-baseline="middle">😅</text></g></g><g class="spinner"><circle cx="50" cy="50" r="8"></circle><path d="M50 38 l 2 5 h-4z" fill="#000"></path></g></svg>